<svg width="80" height="80" viewBox="0 0 80 80" fill="none" xmlns="http://www.w3.org/2000/svg">
<g opacity="0.8">
<path d="M0 58.9474C0 62.6737 1.95 65.9789 5 68.2947V75.7895C5 78.1053 7.25 80 10 80H15C17.775 80 20 78.1053 20 75.7895V71.5789H60V75.7895C60 78.1053 62.225 80 65 80H70C72.75 80 75 78.1053 75 75.7895V68.2947C78.05 65.9789 80 62.6737 80 58.9474V16.8421C80 2.10526 62.1 0 40 0C17.9 0 0 2.10526 0 16.8421V58.9474ZM17.5 63.1579C13.35 63.1579 10 60.3368 10 56.8421C10 53.3474 13.35 50.5263 17.5 50.5263C21.65 50.5263 25 53.3474 25 56.8421C25 60.3368 21.65 63.1579 17.5 63.1579ZM62.5 63.1579C58.35 63.1579 55 60.3368 55 56.8421C55 53.3474 58.35 50.5263 62.5 50.5263C66.65 50.5263 70 53.3474 70 56.8421C70 60.3368 66.65 63.1579 62.5 63.1579ZM70 37.8947H10V16.8421H70V37.8947Z" fill="#F8F8F8"/>
</g>
</svg>
