<svg width="24" height="24" viewBox="0 0 24 24" fill="none" xmlns="http://www.w3.org/2000/svg">
<path d="M6.65202 12.4467C8.35921 12.4467 9.74765 11.0578 9.74765 9.35113C9.74765 7.64441 8.35874 6.25551 6.65202 6.25551C4.9453 6.25551 3.5564 7.64441 3.5564 9.35113C3.5564 11.0578 4.94483 12.4467 6.65202 12.4467ZM6.65202 7.7555C7.53187 7.7555 8.24765 8.47128 8.24765 9.35113C8.24765 10.231 7.53187 10.9467 6.65202 10.9467C5.77218 10.9467 5.0564 10.231 5.0564 9.35113C5.0564 8.47128 5.77218 7.7555 6.65202 7.7555Z" fill="#F8F8F8"/>
<path d="M2.03906 21.6943H3.79688C4.15312 21.6943 4.46016 21.444 4.53141 21.0947L4.56516 20.9288C4.87594 19.4115 6.22547 18.3104 7.77422 18.3104H16.2253C17.7741 18.3104 19.1236 19.4115 19.4344 20.9288L19.4681 21.0943C19.5394 21.443 19.8469 21.6938 20.2027 21.6938H21.9605C22.3748 21.6938 22.7105 21.3582 22.7105 20.9438V13.8985C22.7105 13.8933 22.71 13.8877 22.7095 13.8826C22.7095 13.8774 22.71 13.8722 22.7095 13.8671L22.5642 10.3955C22.5112 9.12708 21.66 8.02458 20.4459 7.65193L14.1075 5.70802C13.1878 5.42583 12.217 5.59224 11.4436 6.16411C10.6702 6.73599 10.2267 7.61536 10.2267 8.57724V13.1485H2.78906V3.05583C2.78906 2.64146 2.45344 2.30583 2.03906 2.30583C1.62469 2.30583 1.28906 2.64146 1.28906 3.05583V13.8985V14.6166V20.9443C1.28906 21.3586 1.62469 21.6943 2.03906 21.6943ZM21.2109 20.1943H20.7933C20.5181 19.2929 19.9781 18.4852 19.2445 17.8861C18.3947 17.1929 17.3222 16.8108 16.2253 16.8108H7.77469C6.67781 16.8108 5.60531 17.1929 4.75547 17.8861C4.02141 18.4852 3.48188 19.2929 3.20672 20.1943H2.78906V14.6485H10.9777H21.2109V20.1943ZM11.7277 8.57771C11.7277 8.09677 11.9494 7.65661 12.3361 7.37068C12.7228 7.08474 13.2084 7.00177 13.6683 7.14286L20.0067 9.08677C20.6137 9.27286 21.0398 9.82458 21.0661 10.4588L21.1786 13.149H11.7277V8.57771Z" fill="#F8F8F8"/>
</svg>
